<svg width="40" height="40" viewBox="0 0 40 40" fill="none" xmlns="http://www.w3.org/2000/svg">
<path d="M0 20C0 8.95431 8.95431 0 20 0V0C31.0457 0 40 8.95431 40 20V20C40 31.0457 31.0457 40 20 40V40C8.95431 40 0 31.0457 0 20V20Z" fill="#C23934"/>
<path fill-rule="evenodd" clip-rule="evenodd" d="M20.0001 7.69238C13.2308 7.69238 7.69238 13.2308 7.69238 20.0001C7.69238 26.7693 13.2308 32.3078 20.0001 32.3078C26.7693 32.3078 32.3078 26.7693 32.3078 20.0001C32.3078 13.2308 26.7693 7.69238 20.0001 7.69238ZM10.7693 20.0001C10.7693 14.9232 14.9232 10.7693 20.0001 10.7693C22.0001 10.7693 23.8462 11.3847 25.3334 12.4616L12.4616 25.3334C11.3847 23.8462 10.7693 22.0001 10.7693 20.0001V20.0001ZM20.0001 29.2308C18.0001 29.2308 16.1539 28.6155 14.6667 27.5385L27.5385 14.6667C28.6155 16.1539 29.2308 18.0001 29.2308 20.0001C29.2308 25.077 25.077 29.2308 20.0001 29.2308Z" fill="white"/>
<mask id="mask0_603_98701" style="mask-type:alpha" maskUnits="userSpaceOnUse" x="7" y="7" width="26" height="26">
<path fill-rule="evenodd" clip-rule="evenodd" d="M20.0001 7.69238C13.2308 7.69238 7.69238 13.2308 7.69238 20.0001C7.69238 26.7693 13.2308 32.3078 20.0001 32.3078C26.7693 32.3078 32.3078 26.7693 32.3078 20.0001C32.3078 13.2308 26.7693 7.69238 20.0001 7.69238ZM10.7693 20.0001C10.7693 14.9232 14.9232 10.7693 20.0001 10.7693C22.0001 10.7693 23.8462 11.3847 25.3334 12.4616L12.4616 25.3334C11.3847 23.8462 10.7693 22.0001 10.7693 20.0001V20.0001ZM20.0001 29.2308C18.0001 29.2308 16.1539 28.6155 14.6667 27.5385L27.5385 14.6667C28.6155 16.1539 29.2308 18.0001 29.2308 20.0001C29.2308 25.077 25.077 29.2308 20.0001 29.2308Z" fill="white"/>
</mask>
<g mask="url(#mask0_603_98701)">
</g>
</svg>
