<svg width="40" height="40" viewBox="0 0 40 40" fill="none" xmlns="http://www.w3.org/2000/svg">
<path fill-rule="evenodd" clip-rule="evenodd" d="M39.504 32.6154L21.8886 4.15385C20.9655 2.61538 18.9655 2.61538 18.0424 4.15385L0.427036 32.6154C-0.649887 34.3846 0.427036 36.8462 2.35011 36.8462H37.5809C39.504 36.8462 40.6578 34.3846 39.504 32.6154ZM19.9655 30.6923C18.6578 30.6923 17.6578 29.6923 17.6578 28.3846C17.6578 27.0769 18.6578 26.0769 19.9655 26.0769C21.2732 26.0769 22.2732 27.0769 22.2732 28.3846C22.2732 29.6923 21.2732 30.6923 19.9655 30.6923ZM22.2732 23.7692C22.2732 24.2308 21.9655 24.5385 21.504 24.5385H18.427C17.9655 24.5385 17.6578 24.2308 17.6578 23.7692V13.7692C17.6578 13.3077 17.9655 13 18.427 13H21.504C21.9655 13 22.2732 13.3077 22.2732 13.7692V23.7692Z" fill="#FE9339"/>
</svg>
